<?xml version="1.0" encoding="UTF-8"?>
<svg width="160px" height="53px" viewBox="0 0 160 53" version="1.1" xmlns="http://www.w3.org/2000/svg" xmlns:xlink="http://www.w3.org/1999/xlink">
    <!-- Generator: sketchtool 61 (101010) - https://sketch.com -->
    <title>9E3C3972-E5A1-4685-A8A5-A09292036A22</title>
    <desc>Created with sketchtool.</desc>
    <defs>
        <path d="M129.608623,-1.05405405 C137.152758,-1.05405405 144.165337,2.30742476 148.980655,8.03807175 C152.910129,12.7144872 155.108108,18.6579958 155.108108,24.9459459 C155.108108,39.311818 143.685588,50.9459459 129.608623,50.9459459 C123.694466,50.9459459 118.08635,48.8853689 113.582078,45.1700715 C113.129005,44.7963595 113.051503,44.1094286 113.408972,43.6357684 C113.766441,43.1621082 114.423515,43.0810842 114.876588,43.4547962 C119.014369,46.867798 124.167149,48.761072 129.608623,48.761072 C142.543386,48.761072 153.018198,38.0922083 153.018198,24.9459459 C153.018198,19.1954596 151.009062,13.762598 147.41053,9.4800317 C142.989567,4.21870212 136.547754,1.1308199 129.608623,1.1308199 C124.041213,1.1308199 118.77741,3.11318798 114.59663,6.67167586 C114.149089,7.05260274 113.490904,6.98211532 113.126534,6.51423779 C112.762164,6.04636027 112.829588,5.35826834 113.277129,4.97734146 C117.828367,1.10353637 123.55744,-1.05405405 129.608623,-1.05405405 Z M30.7226562,28.0529455 C32.0247461,28.0529455 33.0371058,28.5151805 33.7597656,29.4396643 C34.4824255,30.3641481 34.84375,31.6384174 34.84375,33.2625106 L34.84375,33.4030564 C34.84375,34.9646844 34.4742875,36.2155297 33.7353516,37.1556298 C32.9964156,38.0957298 31.9987042,38.5657728 30.7421875,38.5657728 C29.6744738,38.5657728 28.8118522,38.209727 28.1542969,37.4976246 L28.1542969,42.2761824 L25.3320312,42.2761824 L25.3320312,28.2403399 L27.9492188,28.2403399 L28.046875,29.2335304 C28.7304722,28.4464699 29.6223903,28.0529455 30.7226562,28.0529455 Z M19.4628906,28.0529455 C20.7649805,28.0529455 21.7773401,28.5151805 22.5,29.4396643 C23.2226599,30.3641481 23.5839844,31.6384174 23.5839844,33.2625106 L23.5839844,33.4030564 C23.5839844,34.9646844 23.2145219,36.2155297 22.4755859,37.1556298 C21.73665,38.0957298 20.7389386,38.5657728 19.4824219,38.5657728 C18.4147082,38.5657728 17.5520866,38.209727 16.8945312,37.4976246 L16.8945312,42.2761824 L14.0722656,42.2761824 L14.0722656,28.2403399 L16.6894531,28.2403399 L16.7871094,29.2335304 C17.4707065,28.4464699 18.3626247,28.0529455 19.4628906,28.0529455 Z M46.4453125,28.0529455 C47.8906322,28.0529455 49.0283162,28.4901948 49.8583984,29.3647065 C50.6884807,30.2392182 51.1035156,31.4791322 51.1035156,33.0844859 L51.1035156,34.190113 L44.375,34.190113 C44.4661463,34.8522432 44.7412086,35.3831888 45.2001953,35.7829656 C45.659182,36.1827424 46.2402309,36.3826277 46.9433594,36.3826277 C48.0306044,36.3826277 48.8802053,36.0047194 49.4921875,35.2488915 L50.8789062,36.7386772 C50.4557271,37.3133563 49.8828161,37.7615368 49.1601562,38.0832322 C48.4374964,38.4049275 47.6367231,38.5657728 46.7578125,38.5657728 C45.2083256,38.5657728 43.946945,38.1097843 42.9736328,37.1977935 C42.0003207,36.2858027 41.5136719,35.0708744 41.5136719,33.5529719 L41.5136719,33.2906197 C41.5136719,32.2724383 41.7187479,31.3620228 42.1289062,30.559346 C42.5390646,29.7566692 43.1201134,29.1382737 43.8720703,28.7041412 C44.6240272,28.2700086 45.481766,28.0529455 46.4453125,28.0529455 Z M99.4140625,28.0529455 C100.859382,28.0529455 101.997066,28.4901948 102.827148,29.3647065 C103.657231,30.2392182 104.072266,31.4791322 104.072266,33.0844859 L104.072266,34.190113 L97.34375,34.190113 C97.4348963,34.8522432 97.7099586,35.3831888 98.1689453,35.7829656 C98.627932,36.1827424 99.2089809,36.3826277 99.9121094,36.3826277 C100.999354,36.3826277 101.848955,36.0047194 102.460938,35.2488915 L103.847656,36.7386772 C103.424477,37.3133563 102.851566,37.7615368 102.128906,38.0832322 C101.406246,38.4049275 100.605473,38.5657728 99.7265625,38.5657728 C98.1770756,38.5657728 96.915695,38.1097843 95.9423828,37.1977935 C94.9690707,36.2858027 94.4824219,35.0708744 94.4824219,33.5529719 L94.4824219,33.2906197 C94.4824219,32.2724383 94.6874979,31.3620228 95.0976562,30.559346 C95.5078146,29.7566692 96.0888634,29.1382737 96.8408203,28.7041412 C97.5927772,28.2700086 98.450516,28.0529455 99.4140625,28.0529455 Z M80.9960938,28.0529455 C82.4218821,28.0529455 83.5856075,28.4714556 84.4873047,29.3084882 C85.3890019,30.1455208 85.8919266,31.2823689 85.9960938,32.7190667 L86.015625,33.4124261 C86.015625,34.9678076 85.5631556,36.2155297 84.6582031,37.1556298 C83.7532507,38.0957298 82.5390701,38.5657728 81.015625,38.5657728 C79.4921799,38.5657728 78.2763717,38.0972914 77.3681641,37.1603146 C76.4599564,36.2233378 76.0058594,34.9490684 76.0058594,33.3374683 L76.0058594,33.215662 C76.0058594,32.2099735 76.2076803,31.3136125 76.6113281,30.5265519 C77.014976,29.7394914 77.5960249,29.1304656 78.3544922,28.6994563 C79.1129595,28.268447 79.9934846,28.0529455 80.9960938,28.0529455 Z M62.9589844,24.5486698 C63.9746145,24.5486698 64.8795533,24.7251311 65.6738281,25.078059 C66.4681029,25.4309869 67.0849587,25.9291388 67.5244141,26.5725296 C67.9638694,27.2159203 68.1835938,27.9467513 68.1835938,28.7650443 L65.2539062,28.7650443 C65.2539062,28.1403931 65.0488302,27.6547341 64.6386719,27.3080527 C64.2285136,26.9613713 63.6523475,26.7880332 62.9101562,26.7880332 C62.1940068,26.7880332 61.6373718,26.9332624 61.2402344,27.2237252 C60.843097,27.514188 60.6445312,27.8967811 60.6445312,28.371516 C60.6445312,28.8150184 60.8772763,29.1866803 61.3427734,29.4865129 C61.8082706,29.7863455 62.4934851,30.0674343 63.3984375,30.3297878 C65.0651125,30.8107692 66.2792931,31.4073022 67.0410156,32.1194046 C67.8027382,32.8315069 68.1835938,33.7184984 68.1835938,34.7804054 C68.1835938,35.9609962 67.7181036,36.8870277 66.7871094,37.5585278 C65.8561151,38.2300278 64.6028725,38.5657728 63.0273438,38.5657728 C61.9335883,38.5657728 60.9375045,38.3736954 60.0390625,37.9895349 C59.1406205,37.6053745 58.455406,37.0791137 57.9833984,36.4107369 C57.5113909,35.7423601 57.2753906,34.9678042 57.2753906,34.087046 L60.2148438,34.087046 C60.2148438,35.5924554 61.1523344,36.3451489 63.0273438,36.3451489 C63.7239618,36.3451489 64.2675762,36.2092893 64.6582031,35.937566 C65.0488301,35.6658427 65.2441406,35.2863728 65.2441406,34.7991448 C65.2441406,34.2681913 65.0488301,33.8606125 64.6582031,33.5763962 C64.2675762,33.2921799 63.5644582,32.9923518 62.5488281,32.676903 C61.533198,32.3614541 60.7291696,32.0506948 60.1367188,31.7446157 C58.5221273,30.9075831 57.7148438,29.7801046 57.7148438,28.3621463 C57.7148438,27.6250579 57.9313129,26.9676224 58.3642578,26.38982 C58.7972027,25.8120176 59.4189413,25.3607139 60.2294922,25.0358953 C61.0400431,24.7110766 61.9498647,24.5486698 62.9589844,24.5486698 Z M73.359375,25.7479941 L73.359375,28.2403399 L75.1660156,28.2403399 L75.1660156,30.2267209 L73.359375,30.2267209 L73.359375,35.2863704 C73.359375,35.6611611 73.434244,35.9297571 73.5839844,36.0921664 C73.7337247,36.2545757 74.0201802,36.3357791 74.4433594,36.3357791 C74.7558609,36.3357791 75.0325509,36.3139167 75.2734375,36.2701911 L75.2734375,38.3221601 C74.7200493,38.4845694 74.1503936,38.5657728 73.5644531,38.5657728 C71.5852766,38.5657728 70.5761721,37.6069476 70.5371094,35.6892684 L70.5371094,30.2267209 L68.9941406,30.2267209 L68.9941406,28.2403399 L70.5371094,28.2403399 L70.5371094,25.7479941 L73.359375,25.7479941 Z M39.5703125,23.9864865 L39.5703125,38.3783784 L36.7382812,38.3783784 L36.7382812,23.9864865 L39.5703125,23.9864865 Z M92.8515625,28.0529455 C93.1640641,28.0529455 93.4570299,28.0935472 93.7304688,28.1747519 L93.6914062,30.7795344 C93.3072897,30.7295623 92.9687515,30.7045766 92.6757812,30.7045766 C91.6080676,30.7045766 90.9082048,31.0512529 90.5761719,31.7446157 L90.5761719,38.3783784 L87.7539062,38.3783784 L87.7539062,28.2403399 L90.4199219,28.2403399 L90.4980469,29.449034 C91.064456,28.5183037 91.8489533,28.0529455 92.8515625,28.0529455 Z M8.07617188,24.7360642 L13.3984375,38.3783784 L10.2832031,38.3783784 L9.296875,35.567462 L4.16015625,35.567462 L3.18359375,38.3783784 L0.068359375,38.3783784 L5.36132812,24.7360642 L8.07617188,24.7360642 Z M80.9960938,30.2454603 C80.3059861,30.2454603 79.7721373,30.5031251 79.3945312,31.0184623 C79.0169252,31.5337996 78.828125,32.3317795 78.828125,33.4124261 C78.828125,34.374389 79.0169252,35.1099047 79.3945312,35.6189955 C79.7721373,36.1280862 80.3124965,36.3826277 81.015625,36.3826277 C81.6992222,36.3826277 82.233071,36.1312094 82.6171875,35.6283652 C83.001304,35.125521 83.1933594,34.3212946 83.1933594,33.215662 C83.1933594,32.2724386 83.001304,31.5416077 82.6171875,31.0231472 C82.233071,30.5046867 81.6927118,30.2454603 80.9960938,30.2454603 Z M29.9804688,30.25483 C29.0950477,30.25483 28.4863298,30.5796438 28.1542969,31.229281 L28.1542969,35.3800676 C28.4993507,36.0484444 29.1145789,36.3826277 30,36.3826277 C31.347663,36.3826277 32.0214844,35.3238598 32.0214844,33.2062922 C32.0214844,32.2630689 31.8473325,31.5353612 31.4990234,31.0231472 C31.1507144,30.5109332 30.6445346,30.25483 29.9804688,30.25483 Z M18.7207031,30.25483 C17.835282,30.25483 17.2265642,30.5796438 16.8945312,31.229281 L16.8945312,35.3800676 C17.2395851,36.0484444 17.8548133,36.3826277 18.7402344,36.3826277 C20.0878974,36.3826277 20.7617188,35.3238598 20.7617188,33.2062922 C20.7617188,32.2630689 20.5875668,31.5353612 20.2392578,31.0231472 C19.8909488,30.5109332 19.3847689,30.25483 18.7207031,30.25483 Z M135.121349,17.2872991 C135.879365,17.3189625 138.015875,17.5701109 139.38968,19.4188222 C139.276369,19.4850275 136.839778,20.7889842 136.866348,23.5084392 C136.896825,26.7596956 139.964053,27.8420085 140,27.8549617 C139.971086,27.9283633 139.508462,29.3971136 138.382379,30.9090414 L138.116459,31.2653667 C137.22394,32.4463701 136.256738,33.5279455 134.810328,33.5514968 C133.250535,33.5795621 132.748057,32.6994632 130.961641,32.6994632 C129.176006,32.6994632 128.618044,33.5255904 127.139523,33.5795621 C125.603174,33.634973 124.438018,32.1640638 123.455723,30.860107 C121.449717,28.1924649 119.921182,23.319898 121.974076,20.0340998 C122.997788,18.4005557 124.820933,17.3686164 126.802714,17.3405512 C128.312493,17.3175232 129.733186,18.2739021 130.654527,18.2739021 C131.576649,18.2739021 133.302893,17.117468 135.121349,17.2872991 Z M6.71875,28.1841216 L4.95117188,33.2906197 L8.50585938,33.2906197 L6.71875,28.1841216 Z M99.4042969,30.2454603 C98.8443982,30.2454603 98.3903012,30.4266064 98.0419922,30.7889041 C97.6936832,31.1512018 97.4707036,31.6696546 97.3730469,32.3442779 L101.298828,32.3442779 L101.298828,32.1287743 C101.285807,31.5291091 101.116538,31.0653126 100.791016,30.7373707 C100.465493,30.4094288 100.003258,30.2454603 99.4042969,30.2454603 Z M46.4355469,30.2454603 C45.8756482,30.2454603 45.4215512,30.4266064 45.0732422,30.7889041 C44.7249332,31.1512018 44.5019536,31.6696546 44.4042969,32.3442779 L48.3300781,32.3442779 L48.3300781,32.1287743 C48.3170572,31.5291091 48.1477881,31.0653126 47.8222656,30.7373707 C47.4967432,30.4094288 47.0345082,30.2454603 46.4355469,30.2454603 Z M24.1171875,10.0424673 C25.0058638,10.0424673 25.708819,10.3638455 26.2260742,11.0066116 C26.7433294,11.6493777 27.0019531,12.5435525 27.0019531,13.6891628 L27.0019531,13.8006625 C27.0019531,14.8806844 26.7444687,15.7508105 26.2294922,16.4110668 C25.7145157,17.0713232 25.017257,17.4014464 24.1376953,17.4014464 C23.2399044,17.4014464 22.5335312,17.1281656 22.0185547,16.5815958 L22.0185547,19.9987331 L20.7539062,19.9987331 L20.7539062,10.1736434 L21.9091797,10.1736434 L21.9707031,10.9607 C22.4856797,10.3485418 23.2011673,10.0424673 24.1171875,10.0424673 Z M16.2148438,10.0424673 C17.0533896,10.0424673 17.7335586,10.2501607 18.2553711,10.6655537 C18.7771836,11.0809468 19.0380859,11.6122047 19.0380859,12.2593433 L17.7666016,12.2593433 C17.7666016,11.9270289 17.6196304,11.6406306 17.3256836,11.4001399 C17.0317368,11.1596492 16.6614606,11.0394056 16.2148438,11.0394056 C15.754555,11.0394056 15.3945325,11.1356005 15.1347656,11.327993 C14.8749987,11.5203856 14.7451172,11.7718039 14.7451172,12.0822556 C14.7451172,12.375217 14.8658842,12.5960279 15.1074219,12.7446949 C15.3489595,12.8933619 15.7853159,13.0354679 16.4165039,13.1710172 C17.047692,13.3065665 17.5592428,13.4683488 17.9511719,13.6563688 C18.3431009,13.8443888 18.6336254,14.0706653 18.8227539,14.3352051 C19.0118825,14.5997449 19.1064453,14.9222162 19.1064453,15.3026288 C19.1064453,15.9366498 18.842125,16.4449521 18.3134766,16.8275509 C17.7848281,17.2101498 17.0989625,17.4014464 16.2558594,17.4014464 C15.6634085,17.4014464 15.1393252,17.300879 14.6835938,17.0997413 C14.2278623,16.8986037 13.8712578,16.617671 13.6137695,16.2569349 C13.3562813,15.8961988 13.2275391,15.5059539 13.2275391,15.0861882 L14.4921875,15.0861882 C14.5149741,15.4928362 14.6847315,15.8153075 15.0014648,16.053612 C15.3181982,16.2919164 15.7363255,16.4110668 16.2558594,16.4110668 C16.7343774,16.4110668 17.1183254,16.3181514 17.4077148,16.1323176 C17.6971043,15.9464839 17.8417969,15.6983449 17.8417969,15.3878933 C17.8417969,15.0599514 17.7130547,14.8052537 17.4555664,14.6237925 C17.1980781,14.4423313 16.7491894,14.2860147 16.1088867,14.1548379 C15.468584,14.0236612 14.9604511,13.8662514 14.5844727,13.682604 C14.2084942,13.4989565 13.9305022,13.2803319 13.7504883,13.0267235 C13.5704744,12.7731151 13.4804688,12.4714131 13.4804688,12.1216084 C13.4804688,11.5400581 13.7368138,11.0481527 14.2495117,10.6458773 C14.7622096,10.2436019 15.4173137,10.0424673 16.2148438,10.0424673 Z M31.6298828,10.0424673 C32.6370493,10.0424673 33.451657,10.376963 34.0737305,11.0459644 C34.6958039,11.7149659 35.0068359,12.6047682 35.0068359,13.715398 L35.0068359,13.8006625 C35.0068359,14.4915267 34.8689792,15.1113276 34.5932617,15.6600837 C34.3175442,16.2088398 33.9233424,16.6362509 33.4106445,16.94233 C32.8979467,17.2484091 32.3089226,17.4014464 31.6435547,17.4014464 C30.6409455,17.4014464 29.8286164,17.0669507 29.206543,16.3979492 C28.5844695,15.7289478 28.2734375,14.843518 28.2734375,13.7416332 L28.2734375,13.6563688 C28.2734375,12.961132 28.4158514,12.3358655 28.7006836,11.7805506 C28.9855157,11.2252356 29.3819962,10.7967313 29.8901367,10.4950248 C30.3982773,10.1933183 30.9781868,10.0424673 31.6298828,10.0424673 Z M57.4697266,10.0424673 C58.4313199,10.0424673 59.1787083,10.3463555 59.7119141,10.9541412 C60.2451199,11.5619268 60.5117188,12.4320529 60.5117188,13.5645455 L60.5117188,14.0695735 L55.5009766,14.0695735 C55.5192058,14.7691828 55.7322571,15.3343275 56.1401367,15.7650245 C56.5480164,16.1957216 57.0664031,16.4110668 57.6953125,16.4110668 C58.1419293,16.4110668 58.5201807,16.323617 58.8300781,16.1487146 C59.1399755,15.9738123 59.4111317,15.7420702 59.6435547,15.4534813 L60.4160156,16.0306561 C59.7962209,16.9445209 58.8665427,17.4014464 57.6269531,17.4014464 C56.6243439,17.4014464 55.8085969,17.0855338 55.1796875,16.4536991 C54.5507781,15.8218644 54.2363281,14.9768801 54.2363281,13.918721 L54.2363281,13.6957216 C54.2363281,12.9917397 54.3764634,12.3631938 54.6567383,11.8100652 C54.9370131,11.2569365 55.3289363,10.8240598 55.8325195,10.5114218 C56.3361028,10.1987839 56.881833,10.0424673 57.4697266,10.0424673 Z M79.4404297,10.0424673 C80.2926475,10.0424673 80.960284,10.2468813 81.4433594,10.6557155 C81.9264347,11.0645497 82.1770832,11.6275082 82.1953125,12.3446078 L82.1953125,15.6108926 C82.1953125,16.2624038 82.2819002,16.7805442 82.4550781,17.1653294 L82.4550781,17.2702703 L81.1289062,17.2702703 C81.0559892,17.1303484 80.996745,16.8811163 80.9511719,16.5225665 C80.3632783,17.1084893 79.6614624,17.4014464 78.8457031,17.4014464 C78.1165328,17.4014464 77.5183943,17.2035911 77.0512695,16.8078745 C76.5841448,16.412158 76.3505859,15.9104144 76.3505859,15.3026288 C76.3505859,14.5636664 76.643389,13.9897767 77.2290039,13.5809425 C77.8146188,13.1721083 78.638341,12.9676943 79.7001953,12.9676943 L80.9306641,12.9676943 L80.9306641,12.4101958 C80.9306641,11.9860577 80.7985039,11.6482826 80.5341797,11.3968605 C80.2698554,11.1454384 79.8802109,11.0197292 79.3652344,11.0197292 C78.9140602,11.0197292 78.5358088,11.1290415 78.2304688,11.3476694 C77.9251287,11.5662974 77.7724609,11.8308332 77.7724609,12.1412848 L76.5009766,12.1412848 C76.5009766,11.7871076 76.6319974,11.44496 76.894043,11.1148319 C77.1560885,10.7847037 77.5115537,10.5234473 77.9604492,10.3310547 C78.4093447,10.1386621 78.9026666,10.0424673 79.4404297,10.0424673 Z M134.973862,13.4324324 C135.13246,14.4083722 134.552584,15.3854254 133.688553,16.0885697 C132.828652,16.7906006 131.414483,17.3361915 130.030051,17.2638172 C129.845019,16.3095897 130.543018,15.3158347 131.339314,14.6917455 C132.226474,13.9913848 133.733985,13.4652792 134.973862,13.4324324 Z M3.96484375,7.72065034 C4.8307335,7.72065034 5.59635084,7.90429504 6.26171875,8.27158995 C6.92708666,8.63888486 7.44091616,9.16139776 7.80322266,9.83914432 C8.16552916,10.5168909 8.34895831,11.2951946 8.35351562,12.1740789 L8.35351562,12.7840477 C8.35351562,13.6847948 8.17236509,14.4740297 7.81005859,15.1517763 C7.44775209,15.8295228 6.93050466,16.3498495 6.25830078,16.7127719 C5.5860969,17.0756942 4.80338988,17.2615252 3.91015625,17.2702703 L1.15527344,17.2702703 L1.15527344,7.72065034 L3.96484375,7.72065034 Z M72.2900391,10.0424673 C73.8531979,10.0424673 74.6416015,10.8885446 74.6552734,12.5807248 L74.6552734,17.2702703 L73.390625,17.2702703 L73.390625,12.574166 C73.3860677,12.0625766 73.2641614,11.684356 73.0249023,11.4394927 C72.7856433,11.1946294 72.4130885,11.0721996 71.9072266,11.0721996 C71.4970683,11.0721996 71.1370458,11.1771395 70.8271484,11.3870223 C70.5172511,11.5969051 70.275717,11.8723721 70.1025391,12.2134317 L70.1025391,17.2702703 L68.8378906,17.2702703 L68.8378906,10.1736434 L70.0341797,10.1736434 L70.0751953,11.0656408 C70.6403023,10.3835217 71.3785762,10.0424673 72.2900391,10.0424673 Z M63.3486328,7.19594595 L63.3486328,17.2702703 L62.0839844,17.2702703 L62.0839844,7.19594595 L63.3486328,7.19594595 Z M48.3369141,10.1736434 L50.2167969,15.6240102 L52.0488281,10.1736434 L53.3408203,10.1736434 L50.6884766,17.2702703 L49.7246094,17.2702703 L47.0449219,10.1736434 L48.3369141,10.1736434 Z M45.6914062,10.1736434 L45.6914062,17.2702703 L44.4199219,17.2702703 L44.4199219,10.1736434 L45.6914062,10.1736434 Z M11.5117188,10.1736434 L11.5117188,17.2702703 L10.2470703,17.2702703 L10.2470703,10.1736434 L11.5117188,10.1736434 Z M40.0449219,10.0424673 C41.6080807,10.0424673 42.3964843,10.8885446 42.4101562,12.5807248 L42.4101562,17.2702703 L41.1455078,17.2702703 L41.1455078,12.574166 C41.1409505,12.0625766 41.0190442,11.684356 40.7797852,11.4394927 C40.5405261,11.1946294 40.1679713,11.0721996 39.6621094,11.0721996 C39.2519511,11.0721996 38.8919286,11.1771395 38.5820312,11.3870223 C38.2721339,11.5969051 38.0305998,11.8723721 37.8574219,12.2134317 L37.8574219,17.2702703 L36.5927734,17.2702703 L36.5927734,10.1736434 L37.7890625,10.1736434 L37.8300781,11.0656408 C38.3951851,10.3835217 39.133459,10.0424673 40.0449219,10.0424673 Z M31.6298828,11.0394056 C31.0055307,11.0394056 30.501955,11.2777065 30.1191406,11.7543154 C29.7363262,12.2309242 29.5449219,12.9130331 29.5449219,13.8006625 C29.5449219,14.587723 29.7351869,15.2195482 30.1157227,15.6961571 C30.4962584,16.172766 31.0055307,16.4110668 31.6435547,16.4110668 C32.286136,16.4110668 32.7965476,16.1694866 33.1748047,15.6863189 C33.5530618,15.2031512 33.7421875,14.5265079 33.7421875,13.6563688 C33.7421875,12.8780534 33.5496439,12.2473213 33.1645508,11.7641536 C32.7794577,11.2809858 32.2679068,11.0394056 31.6298828,11.0394056 Z M23.7412109,11.0721996 C22.9755821,11.0721996 22.4013691,11.3979504 22.0185547,12.0494616 L22.0185547,15.4403637 C22.3968118,16.0875024 22.975582,16.4110668 23.7548828,16.4110668 C24.3610056,16.4110668 24.8429344,16.1804178 25.2006836,15.7191129 C25.5584328,15.257808 25.7373047,14.5724197 25.7373047,13.6629276 C25.7373047,12.8627494 25.5595721,12.2309242 25.2041016,11.767433 C24.848631,11.3039418 24.3610057,11.0721996 23.7412109,11.0721996 Z M80.9306641,13.8268977 L79.9394531,13.8268977 C78.3899662,13.8268977 77.6152344,14.2619607 77.6152344,15.1320999 C77.6152344,15.5125125 77.7473945,15.809842 78.0117188,16.0240973 C78.276043,16.2383527 78.6155578,16.3454788 79.0302734,16.3454788 C79.4267598,16.3454788 79.8027326,16.2470977 80.1582031,16.0503326 C80.5136737,15.8535674 80.7711581,15.5977766 80.9306641,15.2829524 L80.9306641,13.8268977 Z M3.99902344,8.75694151 L2.46777344,8.75694151 L2.46777344,16.2405379 L3.84863281,16.2405379 C4.86035662,16.2405379 5.64762088,15.9388359 6.21044922,15.3354228 C6.77327755,14.7320098 7.0546875,13.8728149 7.0546875,12.7578125 L7.0546875,12.2003141 C7.0546875,11.1159196 6.78922792,10.2731216 6.25830078,9.6718948 C5.72737365,9.07066801 4.97428873,8.76568663 3.99902344,8.75694151 Z M57.4697266,11.0394056 C56.9593073,11.0394056 56.5309262,11.2175847 56.1845703,11.5739482 C55.8382144,11.9303117 55.6240238,12.429869 55.5419922,13.0726351 L59.2470703,13.0726351 L59.2470703,12.9808119 C59.2106118,12.3642811 59.0374364,11.8865863 58.7275391,11.547713 C58.4176417,11.2088397 57.998375,11.0394056 57.4697266,11.0394056 Z M47.2363281,7.20250475 L45.4042969,9.13079339 L44.3857422,9.13079339 L45.7050781,7.20250475 L47.2363281,7.20250475 Z M10.8896484,7.58947424 C11.1357434,7.58947424 11.3225905,7.65724788 11.4501953,7.79279719 C11.5778001,7.9283465 11.6416016,8.09450123 11.6416016,8.29126636 C11.6416016,8.48803149 11.5778001,8.65199998 11.4501953,8.78317673 C11.3225905,8.91435349 11.1357434,8.97994088 10.8896484,8.97994088 C10.6435535,8.97994088 10.4578457,8.91435349 10.3325195,8.78317673 C10.2071934,8.65199998 10.1445312,8.48803149 10.1445312,8.29126636 C10.1445312,8.09450123 10.2071934,7.9283465 10.3325195,7.79279719 C10.4578457,7.65724788 10.6435535,7.58947424 10.8896484,7.58947424 Z" id="path-1"></path>
    </defs>
    <g id="Home-Sky-Play-Medium" stroke="none" stroke-width="1" fill="none" fill-rule="evenodd">
        <g id="Home_Sky-Play:medium_filmes" transform="translate(-114.000000, -1742.000000)">
            <g id="Nav/BottomMenu/NavBottomMenu:WebMedium" transform="translate(2.000000, 1588.000000)">
                <g id="Baixe">
                    <g transform="translate(48.000000, 93.108108)">
                        <g id="Button/Web/Light/ButtonAppleStore:LightDefault" transform="translate(64.000000, 61.405405)">
                            <g id="Button-Apple" transform="translate(0.000000, 0.959459)">
                                <mask id="mask-2" fill="white">
                                    <use xlink:href="#path-1"></use>
                                </mask>
                                <g id="Combined-Shape" fill-rule="nonzero"></g>
                                <g id="Text/Light/Paragraph/TextSecondary:Light" mask="url(#mask-2)" fill="#000000" fill-opacity="0.6">
                                    <g transform="translate(0.000000, -0.959459)" id="Rectangle">
                                        <rect x="0" y="0" width="160" height="51.8108108"></rect>
                                    </g>
                                </g>
                            </g>
                        </g>
                    </g>
                </g>
            </g>
        </g>
    </g>
</svg>