<?xml version="1.0" encoding="UTF-8"?>
<svg width="24px" height="24px" viewBox="0 0 24 24" version="1.1" xmlns="http://www.w3.org/2000/svg" xmlns:xlink="http://www.w3.org/1999/xlink">
    <!-- Generator: sketchtool 61 (101010) - https://sketch.com -->
    <title>688F4735-8C8F-4960-9ECE-C0FF1F228AE6</title>
    <desc>Created with sketchtool.</desc>
    <g id="Home-Sky-Play-Medium" stroke="none" stroke-width="1" fill="none" fill-rule="evenodd" fill-opacity="0.6">
        <g id="Home_Sky-Play:medium_filmes" transform="translate(-810.000000, -1607.000000)" fill="#000000" fill-rule="nonzero">
            <g id="Nav/BottomMenu/NavBottomMenu:WebMedium" transform="translate(2.000000, 1588.000000)">
                <g id="Social">
                    <g transform="translate(808.000000, 19.229730)">
                        <g id="Icon/Light/Secondary/Line/Social/Facebook">
                            <path d="M8.23064682,8.37346437 L8.23064682,6.28009828 C8.23064682,2.81169577 11.1234665,0 14.6919405,0 L17.9225873,0 C18.5173328,0 18.9994695,0.468615962 18.9994695,1.04668305 L18.9994695,5.23341523 C18.9994695,5.81148231 18.5173328,6.28009828 17.9225873,6.28009828 L14.6919405,6.28009828 L14.6919405,8.37346437 L17.9225873,8.37346437 C18.6231759,8.37346437 19.1372342,9.01339477 18.9673165,9.67400536 L17.8904343,13.8607375 C17.7705861,14.3266863 17.3398514,14.6535626 16.845705,14.6535626 L14.6919405,14.6535626 L14.6919405,21.980344 C14.6919405,22.558411 14.2098038,23.027027 13.6150582,23.027027 L9.3075291,23.027027 C8.71278344,23.027027 8.23064682,22.558411 8.23064682,21.980344 L8.23064682,14.6535626 L6.07688228,14.6535626 C5.48213662,14.6535626 5,14.1849466 5,13.6068796 L5,9.42014742 C5,8.84208033 5.48213662,8.37346437 6.07688228,8.37346437 L8.23064682,8.37346437 Z M16.845705,2.09336609 L14.6919405,2.09336609 C12.3129578,2.09336609 10.3844113,3.96782994 10.3844113,6.28009828 L10.3844113,9.42014742 C10.3844113,9.99821449 9.90227475,10.4668305 9.3075291,10.4668305 L7.15376455,10.4668305 L7.15376455,12.5601965 L9.3075291,12.5601965 C9.90227475,12.5601965 10.3844113,13.0288125 10.3844113,13.6068796 L10.3844113,20.9336609 L12.5381759,20.9336609 L12.5381759,13.6068796 C12.5381759,13.0288125 13.0203126,12.5601965 13.6150582,12.5601965 L16.0049007,12.5601965 L16.5433419,10.4668305 L13.6150582,10.4668305 C13.0203126,10.4668305 12.5381759,9.99821449 12.5381759,9.42014742 L12.5381759,6.28009828 C12.5381759,5.12396411 13.5024491,4.18673219 14.6919405,4.18673219 L16.845705,4.18673219 L16.845705,2.09336609 Z" id="path-1"></path>
                        </g>
                    </g>
                </g>
            </g>
        </g>
    </g>
</svg>