<?xml version="1.0" encoding="UTF-8"?>
<svg width="160px" height="53px" viewBox="0 0 160 53" version="1.1" xmlns="http://www.w3.org/2000/svg" xmlns:xlink="http://www.w3.org/1999/xlink">
    <!-- Generator: sketchtool 61 (101010) - https://sketch.com -->
    <title>70D23B69-3463-4B1F-86A8-578969EB45D4</title>
    <desc>Created with sketchtool.</desc>
    <defs>
        <path d="M130.318339,-0.927646638 C137.788518,-0.927646638 144.732351,2.3907363 149.500464,8.04791345 C153.391417,12.6643749 155.567849,18.5316846 155.567849,24.73902 C155.567849,38.9207142 144.257306,50.4056867 130.318339,50.4056867 C124.462159,50.4056867 118.909021,48.3715273 114.448905,44.7038619 C114.000274,44.3349411 113.923531,43.656817 114.277496,43.1892293 C114.63146,42.7216417 115.282093,42.6416565 115.730724,43.0105773 C119.827942,46.3798227 124.930209,48.2488239 130.318339,48.2488239 C143.1263,48.2488239 153.498426,37.7167406 153.498426,24.73902 C153.498426,19.0622579 151.508986,13.6990484 147.945731,9.47138674 C143.568108,4.2775101 137.189445,1.22921611 130.318339,1.22921611 C124.805507,1.22921611 119.593306,3.18616921 115.453511,6.69903546 C115.010357,7.07507866 114.358625,7.00549492 113.997827,6.54361583 C113.637028,6.08173673 113.703791,5.40246649 114.146945,5.02642329 C118.653567,1.20228237 124.326477,-0.927646638 130.318339,-0.927646638 Z M47.0685579,27.8129698 C48.3687943,27.8129698 49.4089835,28.43747 50.0591017,29.0619703 L50.0591017,29.0619703 L50.0591017,28.1876699 L52.3995272,28.1876699 L52.3995272,37.6800736 C52.3995272,41.5519751 50.0591017,43.1756757 47.1985816,43.1756757 C44.4680851,43.1756757 42.9078014,41.427075 42.2576832,40.0531745 L42.2576832,40.0531745 L44.3380615,39.1788741 C44.5981087,40.0531745 45.6382979,41.0523749 47.0685579,41.0523749 C48.8888889,41.0523749 50.0591017,39.9282744 50.0591017,37.9298737 L50.0591017,37.9298737 L50.0591017,37.1804734 L49.929078,37.1804734 C49.4089835,37.8049736 48.3687943,38.4294739 47.0685579,38.4294739 C44.2080378,38.4294739 41.7375887,36.181273 41.7375887,33.1836718 C41.7375887,30.1860707 44.3380615,27.8129698 47.0685579,27.8129698 Z M101.678487,28.1876699 L104.539007,34.9322725 L104.669031,34.9322725 L107.399527,28.1876699 L110,28.1876699 L103.368794,42.9258756 L100.898345,42.9258756 L103.368794,37.6800736 L99.0780142,28.1876699 L101.678487,28.1876699 Z M62.9314421,27.9378698 C65.7919622,27.9378698 67.0921986,30.0611706 67.6122931,31.3101711 L67.6122931,31.3101711 L67.8723404,31.9346714 L60.4609929,34.9322725 C61.1111111,36.0563729 61.891253,36.5559731 63.1914894,36.5559731 C64.4917258,36.5559731 65.2718676,35.9314729 65.9219858,35.0571726 L65.9219858,35.0571726 L67.7423168,36.306173 C67.2222222,37.1804734 65.6619385,38.6792739 63.1914894,38.6792739 C60.070922,38.6792739 57.7304965,36.306173 57.7304965,33.3085719 C57.7304965,30.0611706 60.070922,27.9378698 62.9314421,27.9378698 Z M23.0141844,27.9378698 C26.1347518,27.9378698 28.6052009,30.0611706 28.6052009,33.3085719 C28.6052009,36.4310731 26.1347518,38.6792739 23.0141844,38.6792739 C19.893617,38.6792739 17.4231678,36.306173 17.4231678,33.3085719 C17.4231678,30.1860707 19.893617,27.9378698 23.0141844,27.9378698 Z M35.106383,27.9378698 C38.2269504,27.9378698 40.6973995,30.0611706 40.6973995,33.3085719 C40.6973995,36.4310731 38.2269504,38.6792739 35.106383,38.6792739 C31.9858156,38.6792739 29.5153664,36.306173 29.5153664,33.3085719 C29.5153664,30.1860707 31.9858156,27.9378698 35.106383,27.9378698 Z M8.71158392,22.0675676 C11.3120567,22.0675676 13.1323877,23.066768 14.5626478,24.3157684 L14.5626478,24.3157684 L12.8723404,25.9394691 C11.8321513,25.0651687 10.4018913,24.3157684 8.58156028,24.3157684 C5.20094563,24.3157684 2.47044917,26.9386694 2.47044917,30.3109707 C2.47044917,33.683272 5.07092199,36.306173 8.58156028,36.306173 C10.7919622,36.306173 12.0921986,35.4318727 12.8723404,34.6824724 C13.5224586,34.0579722 14.0425532,33.0587718 14.1725768,31.8097713 L14.1725768,31.8097713 L8.58156028,31.8097713 L8.58156028,29.5615704 L16.643026,29.5615704 C16.7730496,29.9362706 16.7730496,30.4358708 16.7730496,30.935471 C16.7730496,32.5591716 16.2529551,34.6824724 14.6926714,36.181273 C13.1323877,37.8049736 11.3120567,38.5543739 8.71158392,38.5543739 C4.03073286,38.5543739 0,34.8073725 0,30.3109707 C0,25.814569 4.03073286,22.0675676 8.71158392,22.0675676 Z M94.0070922,27.8129698 C96.7375887,27.8129698 98.9479905,29.4366704 99.2080378,32.1844715 L99.2080378,32.1844715 L99.2080378,38.1796738 L96.8676123,38.1796738 L96.8676123,36.9306733 L96.7375887,36.9306733 C96.0874704,37.6800736 95.3073286,38.4294739 93.6170213,38.4294739 C91.536643,38.4294739 89.5862884,37.0555733 89.5862884,34.9322725 C89.5862884,32.6840716 91.9267139,31.4350712 94.2671395,31.4350712 C95.3073286,31.4350712 96.3475177,31.8097713 96.7375887,32.0595714 L96.7375887,32.0595714 L96.7375887,31.9346714 C96.607565,30.6856709 95.4373522,29.9362706 94.1371158,29.9362706 C93.2269504,29.9362706 92.4468085,30.1860707 91.9267139,31.060371 L91.9267139,31.060371 L89.7163121,30.1860707 C90.3664303,28.5623701 92.1867612,27.8129698 94.0070922,27.8129698 Z M88.0260047,22.5671678 L88.0260047,38.1796738 L85.5555556,38.1796738 L85.5555556,22.5671678 L88.0260047,22.5671678 Z M78.9243499,22.5671678 C81.6548463,22.5671678 84.2553191,24.4406685 84.2553191,27.4382696 C84.2553191,30.4358708 81.6548463,32.3093715 78.9243499,32.3093715 L78.9243499,32.3093715 L75.5437352,32.3093715 L75.5437352,38.1796738 L73.0732861,38.1796738 L73.0732861,22.5671678 Z M56.43026,22.5671678 L56.43026,38.1796738 L53.9598109,38.1796738 L53.9598109,22.5671678 L56.43026,22.5671678 Z M94.3971631,33.4334719 C93.2269504,33.4334719 91.7966903,33.8081721 91.7966903,35.0571726 C91.7966903,36.0563729 92.9669031,36.4310731 93.7470449,36.4310731 C95.0472813,36.4310731 96.3475177,35.4318727 96.607565,33.9330721 C95.9574468,33.683272 95.4373522,33.4334719 94.3971631,33.4334719 Z M47.1985816,29.9362706 C45.5082742,29.9362706 44.0780142,31.3101711 44.0780142,33.1836718 C44.0780142,35.0571726 45.5082742,36.4310731 47.1985816,36.4310731 C48.8888889,36.4310731 50.1891253,35.0571726 50.1891253,33.1836718 C50.1891253,31.3101711 48.8888889,29.9362706 47.1985816,29.9362706 Z M23.0141844,29.9362706 C21.3238771,29.9362706 19.893617,31.3101711 19.893617,33.1836718 C19.893617,35.0571726 21.3238771,36.4310731 23.0141844,36.4310731 C24.7044917,36.4310731 26.1347518,35.0571726 26.1347518,33.1836718 C26.1347518,31.1852711 24.7044917,29.9362706 23.0141844,29.9362706 Z M35.106383,29.9362706 C33.4160757,29.9362706 31.9858156,31.3101711 31.9858156,33.1836718 C31.9858156,35.0571726 33.4160757,36.4310731 35.106383,36.4310731 C36.7966903,36.4310731 38.2269504,35.0571726 38.2269504,33.1836718 C38.2269504,31.1852711 36.7966903,29.9362706 35.106383,29.9362706 Z M124.69246,14.4092483 L133.751055,24.4724788 L124.774657,34.4359164 C124.411168,34.3400038 124.174573,33.9864827 124.174573,33.4394248 L124.174573,15.381849 C124.174573,14.925856 124.336839,14.603476 124.600792,14.452991 L124.69246,14.4092483 Z M134.269579,25.0485093 L136.925328,27.9987913 L126.021638,34.0526119 L134.269579,25.0485093 Z M62.9314421,29.9362706 C61.7612293,29.9362706 60.070922,31.060371 60.070922,33.0587718 L60.070922,33.0587718 L65.0118203,31.060371 C64.751773,30.4358708 63.8416076,29.9362706 62.9314421,29.9362706 Z M79.0543735,24.6904686 L75.5437352,24.6904686 L75.5437352,30.0611706 L79.0543735,30.0611706 C80.7446809,30.0611706 81.78487,28.6872701 81.9148936,27.3133696 C81.9148936,26.1892692 80.8747045,24.6904686 79.0543735,24.6904686 L79.0543735,24.6904686 Z M137.729908,21.2709415 L141.941846,23.6099885 C142.739327,24.052859 142.74662,24.7667614 141.941846,25.2135782 L137.623351,27.6112434 L134.806593,24.4622632 L137.729908,21.2709415 Z M126.248676,14.8949832 L137.000412,20.8658248 L134.285301,23.8794877 L126.248676,14.8949832 Z M24.1171875,10.0424673 C25.0058638,10.0424673 25.708819,10.3638455 26.2260742,11.0066116 C26.7433294,11.6493777 27.0019531,12.5435525 27.0019531,13.6891628 L27.0019531,13.8006625 C27.0019531,14.8806844 26.7444687,15.7508105 26.2294922,16.4110668 C25.7145157,17.0713232 25.017257,17.4014464 24.1376953,17.4014464 C23.2399044,17.4014464 22.5335312,17.1281656 22.0185547,16.5815958 L22.0185547,19.9987331 L20.7539062,19.9987331 L20.7539062,10.1736434 L21.9091797,10.1736434 L21.9707031,10.9607 C22.4856797,10.3485418 23.2011673,10.0424673 24.1171875,10.0424673 Z M79.4404297,10.0424673 C80.2926475,10.0424673 80.960284,10.2468813 81.4433594,10.6557155 C81.9264347,11.0645497 82.1770832,11.6275082 82.1953125,12.3446078 L82.1953125,15.6108926 C82.1953125,16.2624038 82.2819002,16.7805442 82.4550781,17.1653294 L82.4550781,17.2702703 L81.1289062,17.2702703 C81.0559892,17.1303484 80.996745,16.8811163 80.9511719,16.5225665 C80.3632783,17.1084893 79.6614624,17.4014464 78.8457031,17.4014464 C78.1165328,17.4014464 77.5183943,17.2035911 77.0512695,16.8078745 C76.5841448,16.412158 76.3505859,15.9104144 76.3505859,15.3026288 C76.3505859,14.5636664 76.643389,13.9897767 77.2290039,13.5809425 C77.8146188,13.1721083 78.638341,12.9676943 79.7001953,12.9676943 L80.9306641,12.9676943 L80.9306641,12.4101958 C80.9306641,11.9860577 80.7985039,11.6482826 80.5341797,11.3968605 C80.2698554,11.1454384 79.8802109,11.0197292 79.3652344,11.0197292 C78.9140602,11.0197292 78.5358088,11.1290415 78.2304688,11.3476694 C77.9251287,11.5662974 77.7724609,11.8308332 77.7724609,12.1412848 L76.5009766,12.1412848 C76.5009766,11.7871076 76.6319974,11.44496 76.894043,11.1148319 C77.1560885,10.7847037 77.5115537,10.5234473 77.9604492,10.3310547 C78.4093447,10.1386621 78.9026666,10.0424673 79.4404297,10.0424673 Z M16.2148438,10.0424673 C17.0533896,10.0424673 17.7335586,10.2501607 18.2553711,10.6655537 C18.7771836,11.0809468 19.0380859,11.6122047 19.0380859,12.2593433 L17.7666016,12.2593433 C17.7666016,11.9270289 17.6196304,11.6406306 17.3256836,11.4001399 C17.0317368,11.1596492 16.6614606,11.0394056 16.2148438,11.0394056 C15.754555,11.0394056 15.3945325,11.1356005 15.1347656,11.327993 C14.8749987,11.5203856 14.7451172,11.7718039 14.7451172,12.0822556 C14.7451172,12.375217 14.8658842,12.5960279 15.1074219,12.7446949 C15.3489595,12.8933619 15.7853159,13.0354679 16.4165039,13.1710172 C17.047692,13.3065665 17.5592428,13.4683488 17.9511719,13.6563688 C18.3431009,13.8443888 18.6336254,14.0706653 18.8227539,14.3352051 C19.0118825,14.5997449 19.1064453,14.9222162 19.1064453,15.3026288 C19.1064453,15.9366498 18.842125,16.4449521 18.3134766,16.8275509 C17.7848281,17.2101498 17.0989625,17.4014464 16.2558594,17.4014464 C15.6634085,17.4014464 15.1393252,17.300879 14.6835938,17.0997413 C14.2278623,16.8986037 13.8712578,16.617671 13.6137695,16.2569349 C13.3562813,15.8961988 13.2275391,15.5059539 13.2275391,15.0861882 L14.4921875,15.0861882 C14.5149741,15.4928362 14.6847315,15.8153075 15.0014648,16.053612 C15.3181982,16.2919164 15.7363255,16.4110668 16.2558594,16.4110668 C16.7343774,16.4110668 17.1183254,16.3181514 17.4077148,16.1323176 C17.6971043,15.9464839 17.8417969,15.6983449 17.8417969,15.3878933 C17.8417969,15.0599514 17.7130547,14.8052537 17.4555664,14.6237925 C17.1980781,14.4423313 16.7491894,14.2860147 16.1088867,14.1548379 C15.468584,14.0236612 14.9604511,13.8662514 14.5844727,13.682604 C14.2084942,13.4989565 13.9305022,13.2803319 13.7504883,13.0267235 C13.5704744,12.7731151 13.4804688,12.4714131 13.4804688,12.1216084 C13.4804688,11.5400581 13.7368138,11.0481527 14.2495117,10.6458773 C14.7622096,10.2436019 15.4173137,10.0424673 16.2148438,10.0424673 Z M57.4697266,10.0424673 C58.4313199,10.0424673 59.1787083,10.3463555 59.7119141,10.9541412 C60.2451199,11.5619268 60.5117188,12.4320529 60.5117188,13.5645455 L60.5117188,14.0695735 L55.5009766,14.0695735 C55.5192058,14.7691828 55.7322571,15.3343275 56.1401367,15.7650245 C56.5480164,16.1957216 57.0664031,16.4110668 57.6953125,16.4110668 C58.1419293,16.4110668 58.5201807,16.323617 58.8300781,16.1487146 C59.1399755,15.9738123 59.4111317,15.7420702 59.6435547,15.4534813 L60.4160156,16.0306561 C59.7962209,16.9445209 58.8665427,17.4014464 57.6269531,17.4014464 C56.6243439,17.4014464 55.8085969,17.0855338 55.1796875,16.4536991 C54.5507781,15.8218644 54.2363281,14.9768801 54.2363281,13.918721 L54.2363281,13.6957216 C54.2363281,12.9917397 54.3764634,12.3631938 54.6567383,11.8100652 C54.9370131,11.2569365 55.3289363,10.8240598 55.8325195,10.5114218 C56.3361028,10.1987839 56.881833,10.0424673 57.4697266,10.0424673 Z M31.6298828,10.0424673 C32.6370493,10.0424673 33.451657,10.376963 34.0737305,11.0459644 C34.6958039,11.7149659 35.0068359,12.6047682 35.0068359,13.715398 L35.0068359,13.8006625 C35.0068359,14.4915267 34.8689792,15.1113276 34.5932617,15.6600837 C34.3175442,16.2088398 33.9233424,16.6362509 33.4106445,16.94233 C32.8979467,17.2484091 32.3089226,17.4014464 31.6435547,17.4014464 C30.6409455,17.4014464 29.8286164,17.0669507 29.206543,16.3979492 C28.5844695,15.7289478 28.2734375,14.843518 28.2734375,13.7416332 L28.2734375,13.6563688 C28.2734375,12.961132 28.4158514,12.3358655 28.7006836,11.7805506 C28.9855157,11.2252356 29.3819962,10.7967313 29.8901367,10.4950248 C30.3982773,10.1933183 30.9781868,10.0424673 31.6298828,10.0424673 Z M63.3486328,7.19594595 L63.3486328,17.2702703 L62.0839844,17.2702703 L62.0839844,7.19594595 L63.3486328,7.19594595 Z M3.96484375,7.72065034 C4.8307335,7.72065034 5.59635084,7.90429504 6.26171875,8.27158995 C6.92708666,8.63888486 7.44091616,9.16139776 7.80322266,9.83914432 C8.16552916,10.5168909 8.34895831,11.2951946 8.35351562,12.1740789 L8.35351562,12.7840477 C8.35351562,13.6847948 8.17236509,14.4740297 7.81005859,15.1517763 C7.44775209,15.8295228 6.93050466,16.3498495 6.25830078,16.7127719 C5.5860969,17.0756942 4.80338988,17.2615252 3.91015625,17.2702703 L1.15527344,17.2702703 L1.15527344,7.72065034 L3.96484375,7.72065034 Z M45.6914062,10.1736434 L45.6914062,17.2702703 L44.4199219,17.2702703 L44.4199219,10.1736434 L45.6914062,10.1736434 Z M72.2900391,10.0424673 C73.8531979,10.0424673 74.6416015,10.8885446 74.6552734,12.5807248 L74.6552734,17.2702703 L73.390625,17.2702703 L73.390625,12.574166 C73.3860677,12.0625766 73.2641614,11.684356 73.0249023,11.4394927 C72.7856433,11.1946294 72.4130885,11.0721996 71.9072266,11.0721996 C71.4970683,11.0721996 71.1370458,11.1771395 70.8271484,11.3870223 C70.5172511,11.5969051 70.275717,11.8723721 70.1025391,12.2134317 L70.1025391,17.2702703 L68.8378906,17.2702703 L68.8378906,10.1736434 L70.0341797,10.1736434 L70.0751953,11.0656408 C70.6403023,10.3835217 71.3785762,10.0424673 72.2900391,10.0424673 Z M48.3369141,10.1736434 L50.2167969,15.6240102 L52.0488281,10.1736434 L53.3408203,10.1736434 L50.6884766,17.2702703 L49.7246094,17.2702703 L47.0449219,10.1736434 L48.3369141,10.1736434 Z M11.5117188,10.1736434 L11.5117188,17.2702703 L10.2470703,17.2702703 L10.2470703,10.1736434 L11.5117188,10.1736434 Z M40.0449219,10.0424673 C41.6080807,10.0424673 42.3964843,10.8885446 42.4101562,12.5807248 L42.4101562,17.2702703 L41.1455078,17.2702703 L41.1455078,12.574166 C41.1409505,12.0625766 41.0190442,11.684356 40.7797852,11.4394927 C40.5405261,11.1946294 40.1679713,11.0721996 39.6621094,11.0721996 C39.2519511,11.0721996 38.8919286,11.1771395 38.5820312,11.3870223 C38.2721339,11.5969051 38.0305998,11.8723721 37.8574219,12.2134317 L37.8574219,17.2702703 L36.5927734,17.2702703 L36.5927734,10.1736434 L37.7890625,10.1736434 L37.8300781,11.0656408 C38.3951851,10.3835217 39.133459,10.0424673 40.0449219,10.0424673 Z M23.7412109,11.0721996 C22.9755821,11.0721996 22.4013691,11.3979504 22.0185547,12.0494616 L22.0185547,15.4403637 C22.3968118,16.0875024 22.975582,16.4110668 23.7548828,16.4110668 C24.3610056,16.4110668 24.8429344,16.1804178 25.2006836,15.7191129 C25.5584328,15.257808 25.7373047,14.5724197 25.7373047,13.6629276 C25.7373047,12.8627494 25.5595721,12.2309242 25.2041016,11.767433 C24.848631,11.3039418 24.3610057,11.0721996 23.7412109,11.0721996 Z M31.6298828,11.0394056 C31.0055307,11.0394056 30.501955,11.2777065 30.1191406,11.7543154 C29.7363262,12.2309242 29.5449219,12.9130331 29.5449219,13.8006625 C29.5449219,14.587723 29.7351869,15.2195482 30.1157227,15.6961571 C30.4962584,16.172766 31.0055307,16.4110668 31.6435547,16.4110668 C32.286136,16.4110668 32.7965476,16.1694866 33.1748047,15.6863189 C33.5530618,15.2031512 33.7421875,14.5265079 33.7421875,13.6563688 C33.7421875,12.8780534 33.5496439,12.2473213 33.1645508,11.7641536 C32.7794577,11.2809858 32.2679068,11.0394056 31.6298828,11.0394056 Z M80.9306641,13.8268977 L79.9394531,13.8268977 C78.3899662,13.8268977 77.6152344,14.2619607 77.6152344,15.1320999 C77.6152344,15.5125125 77.7473945,15.809842 78.0117188,16.0240973 C78.276043,16.2383527 78.6155578,16.3454788 79.0302734,16.3454788 C79.4267598,16.3454788 79.8027326,16.2470977 80.1582031,16.0503326 C80.5136737,15.8535674 80.7711581,15.5977766 80.9306641,15.2829524 L80.9306641,13.8268977 Z M3.99902344,8.75694151 L2.46777344,8.75694151 L2.46777344,16.2405379 L3.84863281,16.2405379 C4.86035662,16.2405379 5.64762088,15.9388359 6.21044922,15.3354228 C6.77327755,14.7320098 7.0546875,13.8728149 7.0546875,12.7578125 L7.0546875,12.2003141 C7.0546875,11.1159196 6.78922792,10.2731216 6.25830078,9.6718948 C5.72737365,9.07066801 4.97428873,8.76568663 3.99902344,8.75694151 Z M57.4697266,11.0394056 C56.9593073,11.0394056 56.5309262,11.2175847 56.1845703,11.5739482 C55.8382144,11.9303117 55.6240238,12.429869 55.5419922,13.0726351 L59.2470703,13.0726351 L59.2470703,12.9808119 C59.2106118,12.3642811 59.0374364,11.8865863 58.7275391,11.547713 C58.4176417,11.2088397 57.998375,11.0394056 57.4697266,11.0394056 Z M47.2363281,7.20250475 L45.4042969,9.13079339 L44.3857422,9.13079339 L45.7050781,7.20250475 L47.2363281,7.20250475 Z M10.8896484,7.58947424 C11.1357434,7.58947424 11.3225905,7.65724788 11.4501953,7.79279719 C11.5778001,7.9283465 11.6416016,8.09450123 11.6416016,8.29126636 C11.6416016,8.48803149 11.5778001,8.65199998 11.4501953,8.78317673 C11.3225905,8.91435349 11.1357434,8.97994088 10.8896484,8.97994088 C10.6435535,8.97994088 10.4578457,8.91435349 10.3325195,8.78317673 C10.2071934,8.65199998 10.1445312,8.48803149 10.1445312,8.29126636 C10.1445312,8.09450123 10.2071934,7.9283465 10.3325195,7.79279719 C10.4578457,7.65724788 10.6435535,7.58947424 10.8896484,7.58947424 Z" id="path-1"></path>
    </defs>
    <g id="Home-Sky-Play-Medium" stroke="none" stroke-width="1" fill="none" fill-rule="evenodd">
        <g id="Home_Sky-Play:medium_filmes" transform="translate(-114.000000, -1811.000000)">
            <g id="Nav/BottomMenu/NavBottomMenu:WebMedium" transform="translate(2.000000, 1588.000000)">
                <g id="Baixe">
                    <g transform="translate(48.000000, 93.108108)">
                        <g id="Button/Web/Light/ButtonGooglePlay:LightDefault" transform="translate(64.000000, 130.486486)">
                            <g id="Button/GooglePlay" transform="translate(0.000000, 0.959459)">
                                <mask id="mask-2" fill="white">
                                    <use xlink:href="#path-1"></use>
                                </mask>
                                <use id="Combined-Shape" fill="#FFFFFF" fill-rule="nonzero" xlink:href="#path-1"></use>
                                <g id="Text/Light/Paragraph/TextSecondary:Light" mask="url(#mask-2)" fill="#000000" fill-opacity="0.6">
                                    <g transform="translate(0.000000, -0.959459)" id="Rectangle">
                                        <rect x="0" y="0" width="160" height="51.8108108"></rect>
                                    </g>
                                </g>
                            </g>
                        </g>
                    </g>
                </g>
            </g>
        </g>
    </g>
</svg>