<?xml version="1.0" encoding="UTF-8"?>
<svg width="24px" height="24px" viewBox="0 0 24 24" version="1.1" xmlns="http://www.w3.org/2000/svg" xmlns:xlink="http://www.w3.org/1999/xlink">
    <!-- Generator: sketchtool 61 (101010) - https://sketch.com -->
    <title>90725FA6-AFEB-4EC2-B263-A52BC204AB0A</title>
    <desc>Created with sketchtool.</desc>
    <g id="Home-Sky-Play-Medium" stroke="none" stroke-width="1" fill="none" fill-rule="evenodd" fill-opacity="0.6">
        <g id="Home_Sky-Play:medium_filmes" transform="translate(-954.000000, -1608.000000)" fill="#000000">
            <g id="Nav/BottomMenu/NavBottomMenu:WebMedium" transform="translate(2.000000, 1588.000000)">
                <g id="Social">
                    <g transform="translate(808.000000, 19.229730)">
                        <g id="Icon/Light/Secondary/Line/Social/Instagram" transform="translate(144.000000, 0.959459)">
                            <path d="M17.5098,7.19594595 C16.9578,7.19594595 16.5048,6.76610811 16.5048,6.23648649 C16.5048,5.70686486 16.9478,5.27702703 17.4998,5.27702703 L17.5098,5.27702703 C18.0628,5.27702703 18.5098,5.70686486 18.5098,6.23648649 C18.5098,6.76610811 18.0628,7.19594595 17.5098,7.19594595 L17.5098,7.19594595 Z M12.0398,8.59387838 C10.9188,8.59387838 9.8788,9.1945 9.3638,10.1779459 C8.7808,11.289 9.0048,12.6274459 9.9218,13.5072703 C10.8388,14.3870946 12.2338,14.6039324 13.3918,14.0426486 C14.5508,13.4832838 15.2008,12.2810811 15.0108,11.0500946 C14.8158,9.78648649 13.7998,8.81167568 12.4838,8.62458108 C12.3348,8.60347297 12.1868,8.59387838 12.0398,8.59387838 L12.0398,8.59387838 Z M12.0418,16.271473 C10.7468,16.271473 9.4698,15.7869459 8.5078,14.8639459 C6.9788,13.3978919 6.6048,11.1681081 7.5768,9.31443243 C8.5488,7.46267568 10.6328,6.42262162 12.7768,6.72677027 C14.9708,7.03859459 16.6638,8.66295946 16.9888,10.768973 C17.3058,12.8202973 16.2218,14.8246081 14.2918,15.7572027 C13.5758,16.1026081 12.8048,16.271473 12.0418,16.271473 L12.0418,16.271473 Z M6.9998,2.87837838 C4.7948,2.87837838 2.9998,4.59964865 2.9998,6.71621622 L2.9998,16.3108108 C2.9998,18.4273784 4.7948,20.1486486 6.9998,20.1486486 L16.9998,20.1486486 C19.2058,20.1486486 20.9998,18.4273784 20.9998,16.3108108 L20.9998,6.71621622 C20.9998,4.59964865 19.2058,2.87837838 16.9998,2.87837838 L6.9998,2.87837838 Z M16.9998,22.0675676 L6.9998,22.0675676 C3.6918,22.0675676 0.9998,19.4856622 0.9998,16.3108108 L0.9998,6.71621622 C0.9998,3.54136486 3.6918,0.959459459 6.9998,0.959459459 L16.9998,0.959459459 C20.3088,0.959459459 22.9998,3.54136486 22.9998,6.71621622 L22.9998,16.3108108 C22.9998,19.4856622 20.3088,22.0675676 16.9998,22.0675676 L16.9998,22.0675676 Z" id="Fill-1"></path>
                        </g>
                    </g>
                </g>
            </g>
        </g>
    </g>
</svg>