<?xml version="1.0" encoding="UTF-8"?>
<svg width="16px" height="16px" viewBox="0 0 16 16" version="1.1" xmlns="http://www.w3.org/2000/svg" xmlns:xlink="http://www.w3.org/1999/xlink">
    <!-- Generator: sketchtool 61 (101010) - https://sketch.com -->
    <title>347C8763-AA71-417F-8FFE-863B39A8AEB7</title>
    <desc>Created with sketchtool.</desc>
    <g id="Home-Sky-Play-Medium" stroke="none" stroke-width="1" fill="none" fill-rule="evenodd" fill-opacity="0.6">
        <g id="Home_Sky-Play:medium_filmes" transform="translate(-928.000000, -22.000000)" fill="#000000" fill-rule="nonzero">
            <g id="Icon/Light/Secondary/Line/Magnifier" transform="translate(928.000000, 22.000000)">
                <path d="M7.03664184,1.50990331e-14 C10.9228718,1.50990331e-14 14.0732837,3.10128854 14.0732837,6.92692184 C14.0732837,8.61344544 13.4610101,10.1591947 12.4433396,11.3605188 L15.7604869,14.6257822 C16.0748582,14.9352517 16.0788319,15.4409745 15.7693625,15.7553459 C15.7664272,15.7583276 15.7634686,15.7612862 15.7604869,15.7642215 C15.4396766,16.0800295 14.9248253,16.0800295 14.6040151,15.7642215 L11.2572471,12.4699866 C10.0814349,13.3389601 8.62011952,13.8538437 7.03664184,13.8538437 C3.15041186,13.8538437 9.14823772e-14,10.7525551 9.14823772e-14,6.92692184 C9.14823772e-14,3.10128854 3.15041186,1.50990331e-14 7.03664184,1.50990331e-14 Z M7.03664184,1.60999627 C4.05367249,1.60999627 1.63549805,3.99046493 1.63549805,6.92692184 C1.63549805,9.86337874 4.05367249,12.2438474 7.03664184,12.2438474 C10.0196112,12.2438474 12.4377856,9.86337874 12.4377856,6.92692184 C12.4377856,3.99046493 10.0196112,1.60999627 7.03664184,1.60999627 Z" id="Combined-Shape"></path>
            </g>
        </g>
    </g>
</svg>