<?xml version="1.0" encoding="UTF-8"?>
<svg width="24px" height="24px" viewBox="0 0 24 24" version="1.1" xmlns="http://www.w3.org/2000/svg" xmlns:xlink="http://www.w3.org/1999/xlink">
    <!-- Generator: sketchtool 61 (101010) - https://sketch.com -->
    <title>8E2CCE83-95E4-481A-AD4F-1F8D50F68DF4</title>
    <desc>Created with sketchtool.</desc>
    <g id="Home-Sky-Play-Medium" stroke="none" stroke-width="1" fill="none" fill-rule="evenodd" fill-opacity="0.6">
        <g id="Home_Sky-Play:medium_filmes" transform="translate(-858.000000, -1608.000000)" fill="#000000" fill-rule="nonzero">
            <g id="Nav/BottomMenu/NavBottomMenu:WebMedium" transform="translate(2.000000, 1588.000000)">
                <g id="Social">
                    <g transform="translate(808.000000, 19.229730)">
                        <g id="Icon/Light/Secondary/Line/Social/Twitter" transform="translate(48.000000, 0.959459)">
                            <path d="M22.4219689,2.10448786 C23.1768869,1.59279392 24.1883216,2.25440911 23.9697271,3.11693135 C23.6272418,4.46829884 22.9407254,5.7138814 21.9753009,6.74326446 C21.990175,6.89888535 21.9979043,7.0555239 21.9984437,7.21306881 C21.9984437,18.6072836 10.5542304,24.460557 0.516280033,19.1018112 C-0.404252867,18.6103859 -0.0106372211,17.2617148 1.04158253,17.3019326 C2.72790895,17.3663872 4.39724124,17.0442251 5.91520509,16.3723386 C3.71142152,15.0670346 2.3002988,13.3389317 1.6080388,11.2946227 C0.893280049,9.1838727 0.997608689,6.96574229 1.59390011,4.85915103 C1.7742753,4.22191767 1.95760671,3.741773 2.08785688,3.46016081 C2.40347711,2.77776246 3.37312242,2.68708486 3.81974445,3.29820117 C5.49106167,5.58507718 8.13366551,7.01264836 10.9999434,7.21931939 C10.9845848,5.02439722 12.3886743,3.04886401 14.5251471,2.26527794 C16.4572259,1.55665674 18.6185781,1.95841365 20.1315534,3.25952837 C20.9435165,2.97272542 21.7136667,2.58458491 22.4219689,2.10448786 Z M20.1470764,5.27954445 C19.7705067,5.38850712 19.3624383,5.27522155 19.1043583,4.99007115 C18.1462392,3.93145312 16.6022473,3.56021909 15.2382085,4.06050247 C13.8741695,4.56078586 12.9802397,5.82616724 12.9999011,7.24189196 L12.9999011,8.20266384 C12.9999011,8.72358258 12.5678978,9.14961005 12.02598,9.16311292 C8.76577319,9.24434652 5.65104038,8.01111817 3.405515,5.81347357 C3.01054476,7.45167771 2.98166473,9.1410698 3.509577,10.7000445 C4.18649409,12.6990445 5.73608965,14.3218403 8.40678349,15.4624373 C9.12343056,15.7685021 9.21112055,16.7120906 8.56224977,17.1353334 C7.44332859,17.8651787 6.21731783,18.4129329 4.93320895,18.7651454 C12.6111182,20.7061434 19.9987683,15.8083334 19.9987731,7.21624515 C19.9980569,7.00809664 19.9772302,6.8004616 19.9365609,6.59601353 C19.8739005,6.28101403 19.9789325,5.95674078 20.2165596,5.73155216 C20.439286,5.52048428 20.6455755,5.29552035 20.8343214,5.05853708 C20.6078536,5.13881492 20.3786714,5.21253107 20.1470764,5.27954445 Z" id="path-1"></path>
                        </g>
                    </g>
                </g>
            </g>
        </g>
    </g>
</svg>