<?xml version="1.0" encoding="UTF-8"?>
<svg width="17px" height="16px" viewBox="0 0 17 16" version="1.1" xmlns="http://www.w3.org/2000/svg" xmlns:xlink="http://www.w3.org/1999/xlink">
    <!-- Generator: sketchtool 61 (101010) - https://sketch.com -->
    <title>B1475805-AB27-4468-9F84-779D95C94993</title>
    <desc>Created with sketchtool.</desc>
    <g id="Home-Sky-Play-Medium" stroke="none" stroke-width="1" fill="none" fill-rule="evenodd" fill-opacity="0.6">
        <g id="Home_Sky-Play:medium_filmes" transform="translate(-846.000000, -24.000000)" fill="#000000" fill-rule="nonzero">
            <g id="Header">
                <g id="Menu" transform="translate(368.000000, 8.000000)">
                    <g id="Button/Link/ButtonLink:DefaultLeftIconWeb-Copy" transform="translate(357.000000, 0.000000)">
                        <g id="Group" transform="translate(121.980308, 15.000000)">
                            <g id="Icon/Light/Secondary/Line/User" transform="translate(0.000000, 1.000000)">
                                <path d="M14.6666667,15.2552514 C14.6666667,15.6665646 14.3386468,16 13.9340139,16 C13.529381,16 13.2013611,15.6665646 13.2013611,15.2552514 L13.2013611,12.660726 C13.2013611,11.4267861 12.2173016,10.4264802 11.0034028,10.4264802 L5.66326391,10.4264802 C4.44936504,10.4264802 3.46530556,11.4267861 3.46530556,12.660726 L3.46530556,15.2552514 C3.46530556,15.6665646 3.13728575,16 2.73265278,16 C2.32801982,16 2,15.6665646 2,15.2552514 L2,12.660726 C2,10.6041596 3.64009912,8.93698299 5.66326391,8.93698299 L11.0034028,8.93698299 C13.0265675,8.93698299 14.6666667,10.6041596 14.6666667,12.660726 L14.6666667,15.2552514 Z M8.04240243,5.99643556 C9.27719004,5.99643556 10.2781832,4.9789164 10.2781832,3.72374292 C10.2781832,2.46856944 9.27719005,1.45105028 8.04240243,1.45105028 C6.80761479,1.45105028 5.80662163,2.46856943 5.80662163,3.72374292 C5.80662163,4.97891641 6.80761479,5.99643556 8.04240243,5.99643556 Z M8.04240243,7.44748584 C6.01923764,7.44748584 4.37913852,5.78030935 4.37913852,3.72374292 C4.37913852,1.66717649 6.01923764,0 8.04240243,0 C10.0655672,0 11.7056663,1.66717649 11.7056663,3.72374292 C11.7056663,5.78030935 10.0655672,7.44748584 8.04240243,7.44748584 Z" id="path-1"></path>
                            </g>
                        </g>
                    </g>
                </g>
            </g>
        </g>
    </g>
</svg>