<?xml version="1.0" encoding="UTF-8"?>
<svg width="24px" height="24px" viewBox="0 0 24 24" version="1.1" xmlns="http://www.w3.org/2000/svg" xmlns:xlink="http://www.w3.org/1999/xlink">
    <!-- Generator: sketchtool 61 (101010) - https://sketch.com -->
    <title>B4D89A61-2BCF-4F3A-A126-1520322B2C4D</title>
    <desc>Created with sketchtool.</desc>
    <g id="Home-Sky-Play-Medium" stroke="none" stroke-width="1" fill="none" fill-rule="evenodd" fill-opacity="0.6">
        <g id="Home_Sky-Play:medium_filmes" transform="translate(-906.000000, -1607.000000)" fill="#000000">
            <g id="Nav/BottomMenu/NavBottomMenu:WebMedium" transform="translate(2.000000, 1588.000000)">
                <g id="Social">
                    <g transform="translate(808.000000, 19.229730)">
                        <g id="Icon/Light/Secondary/Line/Social/YouTube" transform="translate(96.000000, 0.000000)">
                            <path d="M10.7506,9.78581486 L10.7506,12.7620581 L13.4776,11.2739365 L10.7506,9.78581486 Z M9.7506,15.3708284 C9.5766,15.3708284 9.4026,15.3266932 9.2476,15.2403419 C8.9396,15.0685986 8.7506,14.7529365 8.7506,14.4113689 L8.7506,8.13650405 C8.7506,7.79493649 8.9396,7.47831486 9.2476,7.30753108 C9.5546,7.13578784 9.9346,7.13290946 10.2446,7.30273378 L15.9946,10.4401662 C16.3076,10.6099905 16.5006,10.9285311 16.5006,11.2739365 C16.5006,11.6183824 16.3076,11.936923 15.9946,12.1077068 L10.2446,15.2451392 C10.0916,15.3286122 9.9206,15.3708284 9.7506,15.3708284 L9.7506,15.3708284 Z M12.0006,4.79758514 C9.2876,4.79758514 4.8276,4.90696351 3.6586,5.20631486 C3.0616,5.36846351 2.5846,5.83955811 2.4306,6.43058514 C2.1416,7.98299054 1.9926,9.63134189 2.0006,11.2691392 C1.9896,12.9290041 2.1396,14.5907878 2.4446,16.2180311 C2.5916,16.6958419 3.0676,17.1477473 3.6646,17.3041392 C4.8276,17.6025311 9.2876,17.7119095 12.0006,17.7119095 C14.7136,17.7119095 19.1736,17.6025311 20.3426,17.3031797 C20.9396,17.1410311 21.4166,16.6699365 21.5706,16.07795 C21.8576,14.5408959 22.0066,12.9040581 22.0006,11.2768149 C22.0116,9.62750405 21.8646,7.97819324 21.5636,6.36534189 C21.4006,5.78678784 20.9306,5.32816622 20.3286,5.16409865 C19.0486,4.8647473 13.8806,4.79758514 12.0006,4.79758514 L12.0006,4.79758514 Z M12.0006,19.6308284 C11.2826,19.6308284 4.9376,19.6173959 3.1426,19.1568554 C1.8696,18.8220041 0.8586,17.8625446 0.4986,16.6507473 C0.1486,14.8153014 -0.0114,13.0355041 0.0006,11.2672203 C-0.0084,9.52484189 0.1516,7.75751757 0.4766,6.02761216 C0.8186,4.70835541 1.8296,3.70859865 3.1286,3.35551757 C4.9376,2.89113919 11.2826,2.87866622 12.0006,2.87866622 C12.7166,2.87866622 19.0526,2.89017973 20.8376,3.30850405 C22.1716,3.67022027 23.1826,4.66997703 23.5106,5.92686892 C23.5166,5.94797703 23.5206,5.96812568 23.5246,5.98923378 C23.8526,7.72969324 24.0126,9.50949054 24.0006,11.2796932 C24.0066,13.0134365 23.8476,14.7663689 23.5246,16.4818824 C23.1826,17.8011392 22.1716,18.8008959 20.8726,19.1530176 C19.0636,19.6173959 12.7186,19.6308284 12.0006,19.6308284 L12.0006,19.6308284 Z" id="Fill-1"></path>
                        </g>
                    </g>
                </g>
            </g>
        </g>
    </g>
</svg>