<?xml version="1.0" encoding="UTF-8"?>
<svg width="85px" height="33px" viewBox="0 0 85 33" version="1.1" xmlns="http://www.w3.org/2000/svg" xmlns:xlink="http://www.w3.org/1999/xlink">
    <!-- Generator: sketchtool 61 (101010) - https://sketch.com -->
    <title>E707D49B-1A75-4046-BA58-A56FE31112D4</title>
    <desc>Created with sketchtool.</desc>
    <defs>
        <path d="M18.2290305,0.00335872693 C23.0868498,0.0722263707 26.7102382,1.22614212 29.7072731,3.35545218 L30.191248,0.853872355 L39.1666541,0.853872355 L36.5574059,13.1167523 L47.110166,0.853872355 L56.0232088,0.853872355 L60.8731463,9.88313797 L67.8444925,0.853872355 L78.2124462,0.853872355 L63.5405418,18.2413299 L61.3576482,29.1002621 L52.5062662,29.1002621 L54.9914903,16.9601436 L50.444586,9.08980667 L44.5032016,15.6179963 L52.5062662,29.1002621 L41.8354549,29.1002621 L35.5885778,17.8752287 L33.4661153,29.1002621 L24.4936956,29.1002621 L25.7664353,22.634041 C23.3409395,28.1851769 18.7947379,30.0161869 12.6109269,30.0161869 C7.40015887,30.0161869 2.61306608,28.431661 0.0052701434,25.5678038 L0.0052701434,25.5557912 L4.91089559,19.766024 C7.03247978,21.8407097 10.3066444,22.9385096 13.7622776,22.9385096 C16.1872464,22.9385096 17.6423331,22.0242641 17.7025884,20.8031989 C17.7635464,18.729353 14.1866999,18.4240447 10.9128866,17.5099672 C7.21429973,16.4721205 3.27398895,13.9713804 4.30447772,8.72420924 C5.080318,4.75866723 8.56048803,0.14355502 17.3502691,0.00335872693 L18.2290305,0.00335872693 Z M29.2839049,5.30771221 L25.7060043,9.51703674 C21.8862042,7.3822299 19.3405491,6.89454275 16.6116687,6.89454275 C15.0965023,6.89454275 13.3986377,7.2598043 13.1558598,8.72420924 C12.9736885,10.004556 14.1866999,10.3098642 16.7335847,10.8600237 L17.2722078,10.9740728 C21.7590391,11.9388865 26.1538855,13.3021024 26.7359661,17.9358537 L29.2839049,5.30771221 Z M81.8210247,0.971572452 C82.5585534,0.971572452 83.119944,1.24457741 83.5059865,1.79038237 C83.891634,2.33618733 83.9870092,2.99471956 83.7909273,3.76536419 C83.5952403,4.53600882 83.1651633,5.19474601 82.5014862,5.74198567 C81.8380066,6.28922534 81.1374037,6.56305014 80.4000725,6.56305014 C79.6548427,6.56305014 79.0889104,6.28984022 78.7014856,5.74403526 C78.3146533,5.1982303 78.2192781,4.53846832 78.415755,3.76536419 C78.6116394,2.99471956 79.0421113,2.33618733 79.7065783,1.79038237 C80.3712427,1.24457741 81.0761898,0.971572452 81.8210247,0.971572452 Z M81.7191331,1.35689477 C81.0902098,1.35689477 80.4932756,1.59177741 79.9277382,2.06133774 C79.3625957,2.53089807 78.9951149,3.09904353 78.8254931,3.76536419 C78.6564638,4.43147989 78.7346596,5.00024022 79.0610679,5.4710303 C79.3874762,5.94202534 79.865142,6.17752287 80.4940654,6.17752287 C81.1229888,6.17752287 81.7191331,5.94202534 82.2821035,5.4710303 C82.8454688,5.00024022 83.2117648,4.43147989 83.3811891,3.76536419 C83.549626,3.10170799 83.4722201,2.53438237 83.1485763,2.06318237 C82.8249325,1.59239229 82.3484515,1.35689477 81.7191331,1.35689477 Z M81.7665246,2.17570468 C82.4444191,2.17570468 82.7011225,2.49953939 82.5364374,3.14700386 C82.4169715,3.6179989 82.1904801,3.90043196 81.8573581,3.99409807 C82.1251195,4.06624353 82.215953,4.27099725 82.1306485,4.60815427 L81.9539181,5.30255427 L81.3198606,5.30255427 L81.4667739,4.7245708 C81.5414154,4.43004518 81.4318228,4.28308981 81.1379961,4.28308981 L80.3297752,4.28308981 L80.0707022,5.30255427 L79.4366448,5.30255427 L80.2312406,2.17570468 L81.7665246,2.17570468 Z M81.5694553,2.73770138 L80.7227289,2.73770138 L80.4727393,3.72109311 L81.2809601,3.72109311 C81.6160569,3.72109311 81.8257638,3.55528154 81.9098835,3.22324848 C81.9920286,2.89961873 81.8788817,2.73770138 81.5694553,2.73770138 Z" id="path-1"></path>
    </defs>
    <g id="Home-Sky-Play-Medium" stroke="none" stroke-width="1" fill="none" fill-rule="evenodd">
        <g id="Home_Sky-Play:medium_filmes" transform="translate(-50.000000, -1603.000000)">
            <g id="Nav/BottomMenu/NavBottomMenu:WebMedium" transform="translate(2.000000, 1588.000000)">
                <g id="Logo/Light/SKY:LightDefault">
                    <g transform="translate(48.000000, 15.702703)">
                        <g id="logo-sky@2x-(3)" transform="translate(0.000000, 1.000000)">
                            <mask id="mask-2" fill="white">
                                <use xlink:href="#path-1"></use>
                            </mask>
                            <g id="Combined-Shape"></g>
                            <g id="Text/Light/Paragraph/TextSecondary:Light" mask="url(#mask-2)" fill="#000000" fill-opacity="0.6">
                                <g transform="translate(0.000000, -0.844697)" id="Rectangle">
                                    <rect x="0" y="0" width="83.9880952" height="32"></rect>
                                </g>
                            </g>
                        </g>
                    </g>
                </g>
            </g>
        </g>
    </g>
</svg>