<?xml version="1.0" encoding="UTF-8"?>
<svg width="48px" height="47px" viewBox="0 0 48 47" version="1.1" xmlns="http://www.w3.org/2000/svg" xmlns:xlink="http://www.w3.org/1999/xlink">
    <!-- Generator: sketchtool 61 (101010) - https://sketch.com -->
    <title>3A2A150E-F34B-4ABC-ADCD-DC07BE15D33E</title>
    <desc>Created with sketchtool.</desc>
    <defs>
        <polygon id="path-1" points="3.73540856e-05 0.0908585795 47.9049339 0.0908585795 47.9049339 45.87555 3.73540856e-05 45.87555"></polygon>
    </defs>
    <g id="Home-Sky-Play-Medium" stroke="none" stroke-width="1" fill="none" fill-rule="evenodd">
        <g id="Home_Sky-Play:medium_filmes" transform="translate(-50.000000, -1681.000000)">
            <g id="Nav/BottomMenu/NavBottomMenu:WebMedium" transform="translate(2.000000, 1588.000000)">
                <g id="Baixe">
                    <g transform="translate(48.000000, 93.108108)">
                        <g id="Logo/MinhaSKY">
                            <g>
                                <g id="Group-3" transform="translate(0.000000, 0.087646)">
                                    <mask id="mask-2" fill="white">
                                        <use xlink:href="#path-1"></use>
                                    </mask>
                                    <g id="Clip-2"></g>
                                    <path d="M47.9049712,34.2927055 C47.9049712,40.6631593 42.4512747,45.8756571 35.7856249,45.8756571 L12.1191969,45.8756571 C5.45373385,45.8756571 3.73540856e-05,40.6631593 3.73540856e-05,34.2927055 L3.73540856e-05,11.6737388 C3.73540856e-05,5.30310647 5.45373385,0.0907871779 12.1191969,0.0907871779 L35.7856249,0.0907871779 C42.4512747,0.0907871779 47.9049712,5.30310647 47.9049712,11.6737388 L47.9049712,34.2927055 Z" id="Fill-1" fill="#E1413E" mask="url(#mask-2)"></path>
                                </g>
                                <path d="M17.8936716,26.0505471 C16.1666054,25.085554 15.0155393,24.8651014 13.7815471,24.8651014 C13.0964732,24.8651014 12.3290335,25.0302177 12.2190257,25.6921109 C12.1368467,26.2708211 12.6852047,26.4088048 13.8366444,26.6576395 C15.947337,27.0983661 18.0854848,27.6777903 18.3592903,29.8562542 L19.5112903,24.147872 L17.8936716,26.0505471 Z M33.794372,26.2160204 L36.9463097,22.1345245 L41.6342475,22.1345245 L35.0003486,29.9942378 L34.0134537,34.9029217 L30.011337,34.9029217 L31.1349479,29.4151706 L29.0791658,25.8574057 L26.3928467,28.8084352 L30.011337,34.9029217 L25.1866833,34.9029217 L22.3621541,29.8287646 L21.4023409,34.9029217 L17.3453136,34.9029217 L17.9209401,31.9799173 C16.8242241,34.4893277 14.7688156,35.3170512 11.9728623,35.3170512 C9.61525914,35.3170512 7.44928249,34.5996432 6.27094786,33.3033466 L8.49108794,30.6834421 C9.45052763,31.6213026 10.93087,32.1175439 12.4933914,32.1175439 C13.5897339,32.1175439 14.2477261,31.704307 14.2749946,31.1521938 C14.3024498,30.2148689 12.6852047,30.0768852 11.2048623,29.6636483 C9.53270661,29.1945395 7.75091673,28.0640732 8.21690895,25.6921109 C8.5734537,23.8717262 10.1905121,21.7484201 14.3024498,21.7484201 C16.6053292,21.7484201 18.3047533,22.2721511 19.7029167,23.2651693 L19.9216249,22.1345245 L23.9797728,22.1345245 L22.8003175,27.6777903 L27.5713681,22.1345245 L31.6015004,22.1345245 L33.794372,26.2160204 Z" id="Fill-4" fill="#FFFFFF"></path>
                                <polygon id="Fill-6" fill="#FFFFFF" points="15.7321401 18.3298884 16.4971518 14.5484578 16.4612918 14.5370336 15.3974475 16.1478544 14.6204825 17.2674321 13.2338988 17.2674321 12.8992062 16.0907331 12.5047471 14.5370336 12.4569339 14.5713063 11.6919222 18.3298884 9.89911284 18.3298884 11.5126226 10.3786024 13.1382724 10.3786024 13.7717977 12.6863032 14.3336031 15.0739739 14.3816031 15.0739739 15.8875331 12.6863032 17.441463 10.3786024 19.1388327 10.3786024 17.525323 18.3298884"></polygon>
                                <path d="M19.9516202,11.8066529 L20.2384996,10.3786202 L21.9119626,10.3786202 L21.6250833,11.8066529 L19.9516202,11.8066529 Z M18.6248031,18.3299062 L19.7723206,12.6748968 L21.4457837,12.6748968 L20.2982661,18.3299062 L18.6248031,18.3299062 Z" id="Fill-8" fill="#FFFFFF"></path>
                                <path d="M24.7328685,18.3298884 L25.4140202,14.9825798 C25.4778957,14.6932246 25.4420358,14.4761637 25.3066272,14.3313969 C25.1710319,14.1868085 24.9878101,14.1143359 24.7567751,14.1143359 C24.5096778,14.1143359 24.2905961,14.1868085 24.0991564,14.3313969 C23.9080903,14.4761637 23.7803393,14.6932246 23.7168374,14.9825798 L23.0354988,18.3298884 L21.3620358,18.3298884 L22.5215066,12.6634547 L24.1949696,12.6634547 L24.1112965,13.0861524 L24.1352031,13.0861524 C24.3184249,12.9567369 24.5335844,12.8444578 24.7806817,12.7491366 C25.0275922,12.653994 25.2627362,12.6063334 25.4859268,12.6063334 C25.7804638,12.6063334 26.0477323,12.6502454 26.2866117,12.7377124 C26.5258646,12.8253579 26.7210397,12.9547734 26.8725105,13.1261373 C27.0237946,13.2975012 27.1274521,13.5108136 27.1832965,13.7658959 C27.2389541,14.0211568 27.2311097,14.3124754 27.1593899,14.6398519 L26.4063315,18.3298884 L24.7328685,18.3298884 Z" id="Fill-10" fill="#FFFFFF"></path>
                                <path d="M30.8289805,18.3413126 L31.5101323,14.994004 C31.6298521,14.4152938 31.4105837,14.1257602 30.8528872,14.1257602 C30.6057899,14.1257602 30.3867082,14.1982328 30.1952685,14.3428211 C30.0042023,14.4875879 29.8764514,14.7046489 29.8129494,14.994004 L29.1316109,18.3413126 L27.4581479,18.3413126 L29.1794241,10.0244503 L30.8528872,10.0244503 L30.2074086,13.0747281 L30.2552218,13.0861524 C30.4384436,12.9567369 30.6496809,12.8462429 30.8885603,12.7548488 C31.1278132,12.6634547 31.3588482,12.6177576 31.5820389,12.6177576 C31.8765759,12.6177576 32.1438444,12.6616696 32.3827237,12.7491366 C32.6219767,12.8367821 32.8171518,12.9661976 32.9686226,13.1375615 C33.1199066,13.3089255 33.2235642,13.5222378 33.2794086,13.7773202 C33.3350661,14.032581 33.3272218,14.3238997 33.2555019,14.6512762 L32.5263502,18.3413126 L30.8289805,18.3413126 Z" id="Fill-12" fill="#FFFFFF"></path>
                                <path d="M35.5385463,16.2392664 C35.5385463,16.4145574 35.5863595,16.5687849 35.681986,16.701949 C35.7774257,16.8352915 35.9528031,16.9018735 36.2079315,16.9018735 C36.4307486,16.9018735 36.6203206,16.8276158 36.7757136,16.6791004 C36.9311066,16.530585 37.0566163,16.3517239 37.1522428,16.1421602 C37.2476825,15.9327749 37.3154802,15.7157139 37.355449,15.4909772 C37.3950444,15.2664191 37.4152156,15.0779188 37.4152156,14.9254763 C37.4152156,14.8189094 37.4071844,14.716091 37.3913089,14.6170212 C37.3752467,14.51813 37.3453634,14.432448 37.3014724,14.3599754 C37.2577681,14.2876812 37.1938926,14.2305599 37.1104062,14.1886114 C37.0267331,14.1468415 36.9170988,14.125778 36.7815035,14.125778 C36.5426241,14.125778 36.3433401,14.2019992 36.1840249,14.3542632 C36.024523,14.5067057 35.8971455,14.6932425 35.8013323,14.914052 C35.7058926,15.1350401 35.6379082,15.3653104 35.5981261,15.6052199 C35.5581572,15.8451294 35.5385463,16.0564782 35.5385463,16.2392664 M36.614344,12.6177755 C36.797379,12.6177755 37.000772,12.6520483 37.2237759,12.7205938 C37.4469665,12.7891394 37.6380327,12.9110577 37.7977214,13.0861702 L37.821628,13.0747459 L37.9053012,12.6748968 L39.5787642,12.6748968 L38.4310599,18.3299062 L36.7575969,18.3299062 L36.8534101,17.88436 L36.8175502,17.8729358 C36.7458304,17.9414813 36.6578615,18.0082419 36.5543907,18.0728603 C36.4509198,18.1376573 36.3394179,18.1928151 36.2196981,18.2385121 C36.1003518,18.2842092 35.9806319,18.3224091 35.8612856,18.3527547 C35.7417525,18.3831004 35.6341728,18.3984518 35.5385463,18.3984518 C35.1799471,18.3984518 34.8870911,18.3470426 34.6599782,18.2442243 C34.4328654,18.1414059 34.2574879,18.0043148 34.1338459,17.8329508 C34.0102039,17.6615869 33.9267175,17.4673745 33.8830132,17.2503135 C33.8389354,17.0332525 33.8170833,16.8104794 33.8170833,16.5819942 C33.8170833,16.1478723 33.862842,15.6985775 33.9547331,15.2339314 C34.0462506,14.7694637 34.2016436,14.342839 34.4209121,13.9544141 C34.639807,13.5659892 34.9287409,13.2461099 35.2873401,12.9947761 C35.6459393,12.7434424 36.0882117,12.6177755 36.614344,12.6177755" id="Fill-14" fill="#FFFFFF"></path>
                            </g>
                        </g>
                    </g>
                </g>
            </g>
        </g>
    </g>
</svg>